<svg id="Calque_1" data-name="Calque 1" xmlns="http://www.w3.org/2000/svg" viewBox="0 0 413.65 430.62"><defs><style>.cls-1{fill:#a9bf08;}.cls-2{fill:#2e0a66;}.cls-3{fill:#c8ce6f;}.cls-4{fill:#7d60c4;}</style></defs><title>logo_vert_clean_sasn_titre</title><path class="cls-1" d="M256.87,414.51q-6.88,0-13.76-.48h-.52a244.08,244.08,0,0,1-67.53-16.34l-.39-.16c-36.13-15.33-66.33-40.63-89.74-75.19l-.22-.32C68,296.34,58.79,274.6,54.78,251.55l-.17-1.22c-.44-4-1.13-8.07-1.85-12.42-.79-4.69-1.59-9.54-2.15-14.58l-.13-1.1v-1.15c0-12.26,0-23.83,1.07-36.66l.06-.55c4.48-40.32,20.33-77.16,45.89-106.76a23.15,23.15,0,0,1,4.84-7.17l15.78-15.79.87-.69,2.56-2A102.8,102.8,0,0,0,130.34,44l1-1,1.19-.88C165.09,17.93,201.94,4.65,245.17,1.48c3.08-.22,14.55-.28,17.26-.25,15-3.61,33.81,1.78,53.31,8.17l3.75,1.22a210.5,210.5,0,0,1,91.87,59.2c47,52.61,64,123.9,45.35,190.7l-.29,1c-1.09,3.26-2.15,6.19-3.18,9s-1.91,5.25-2.82,8l-.08.24c-18.64,53.72-60.27,97.43-114.2,119.9l-.15.06A208.59,208.59,0,0,1,256.87,414.51Zm-10.75-40.36c25,1.67,50.13-2.55,74.74-12.56,43.36-18.09,76.77-53,91.69-95.95,1.07-3.21,2.12-6.1,3.14-8.89.92-2.55,1.8-5,2.66-7.52,14.72-53.46,1-110.56-36.78-152.82a169.92,169.92,0,0,0-74.18-47.75c-1.22-.38-2.58-.83-4.07-1.32-5.57-1.82-12.5-4.1-19.2-5.66A54.45,54.45,0,0,0,273.43,40c-2.5,4.66-4.42,16.35-3.55,23.05L230.21,68.2A89.09,89.09,0,0,1,231,43.26c-27.67,4.35-51.87,14.27-73.54,30.09a142,142,0,0,1-11.08,9.42L144.83,84,133.17,95.65a22.72,22.72,0,0,1-4,5.94C108.12,125.25,95,155.13,91.33,188c-.88,10.7-.91,20.59-.91,31.91.44,3.63,1.07,7.4,1.73,11.36.75,4.49,1.52,9.12,2.08,13.92,3.09,17.24,10.47,34.18,23.86,54.81,19,27.94,43.17,48.31,72,60.57a204.41,204.41,0,0,0,56,13.56Z" transform="translate(-50.48 -0.07)"/><path class="cls-2" d="M193.69,153.08c-8.76,35.12-15.2,71.9-36.29,101.74-14.06,19.89-34.51,36.54-41.44,59.64-5.25,17.5-1.89,36.88,6.07,54.13,9.67,21,26.41,39.72,48,51s48.06,14.55,70.51,7.06c30.77-10.28,49.64-38.13,61.88-66,27.21-62.12,31.9-131.86,25.91-200.09C325.22,125,311.48,64,262.11,57.85,218.43,52.44,200.61,125.34,193.69,153.08Z" transform="translate(-50.48 -0.07)"/><path class="cls-1" d="M306.36,106.5c-1.16,2.26-2.86,4.58-5.36,5-6.54,1.08-8.16-10.48-14.59-12.07-3.3-.82-6.72,1.53-8.32,4.53s-1.81,6.53-2.09,9.92c-.51,6.38-1.48,13.06-5.34,18.16s-11.5,7.89-16.87,4.41c-5.13-3.32-6-10.27-7.95-16s-8.08-11.73-13.41-8.75c-3.52,2-4.36,6.77-7.43,9.38-2.87,2.45-7.3,2.45-10.64.69s-5.69-5-7.25-8.43C191.65,79.28,235.87,58.08,261.87,53,290.15,47.39,321,78,306.36,106.5Z" transform="translate(-50.48 -0.07)"/><path class="cls-3" d="M220.43,78.14c-5.75,5.35-8.64,12.23-8,19,.24,2.34,2.07,5.32,5.33,5,2.78-.31,3.68-2.78,4.26-4.74C224,90.92,228.94,84.91,236,80.57c4-2.45,14.71-8.4,4.89-11.14C234,67.43,224,74.8,220.43,78.14Z" transform="translate(-50.48 -0.07)"/><path class="cls-4" d="M193.8,294.64c14.59-22.16,22.68-51.12,22.3-79.79-.13-10-3.93-22.83-11.69-21.6-6.63,1.05-9.23,11.42-11,19.71-5.71,27.38-18.53,52.41-35.92,70.15-9.83,10-36.34,34.23-13.63,46.89C159.66,338.79,184.7,308.48,193.8,294.64Z" transform="translate(-50.48 -0.07)"/></svg>